<?xml version="1.0" encoding="utf-8"?>
<!-- Generator: Adobe Illustrator 16.0.0, SVG Export Plug-In . SVG Version: 6.00 Build 0)  -->
<!DOCTYPE svg PUBLIC "-//W3C//DTD SVG 1.1//EN" "http://www.w3.org/Graphics/SVG/1.1/DTD/svg11.dtd">
<svg version="1.1" id="Layer_1" xmlns="http://www.w3.org/2000/svg" xmlns:xlink="http://www.w3.org/1999/xlink" x="0px" y="0px"
	 width="100px" height="147.778px" viewBox="0 0 100 147.778" enable-background="new 0 0 100 147.778" xml:space="preserve">
<g>
	<polygon fill="#FFFFFF" points="26.697,81.049 42.642,70.483 42.705,62.761 35.872,56.602 47.639,47.165 47.639,4.798 
		45.073,4.786 25.14,57.351 29.007,72.096 24.626,73.25 21.025,59.498 13.4,79.538 17.824,96.467 13.45,97.611 9.279,81.684 
		2.609,99.325 2.609,100.633 10.225,108.166 11.132,104.683 15.514,105.84 13.907,111.96 17.26,115.313 19.38,107.201 
		23.769,108.355 20.987,118.972 30.252,128.204 37.524,109.118 	"/>
	<polygon fill="#FFFFFF" points="67.775,83.386 52.675,73.504 52.675,56.983 52.604,56.956 60.873,44.105 59,42.251 42.399,56.372 
		47.354,60.843 47.354,73.301 47.354,73.301 32.259,83.158 42.203,109.256 33.789,131.559 39.766,138.162 42.546,127.533 
		46.929,128.686 43.639,141.248 46.528,144.093 53.486,144.104 55.958,141.693 52.554,128.686 56.935,127.533 59.685,138.022 
		66.226,131.444 57.927,109.256 	"/>
	<polygon fill="#FFFFFF" points="90.679,81.609 86.494,97.611 82.106,96.467 86.546,79.487 79.002,59.637 75.415,73.354 
		71.027,72.196 74.881,57.478 54.89,4.798 52.192,4.786 52.192,43.546 59.768,37.564 65.311,43.203 57.222,57.922 57.222,70.572 
		73.331,81.265 62.522,109.332 62.556,109.332 69.775,128.231 78.951,119.072 76.163,108.457 80.551,107.3 82.672,115.416 
		86.057,112.063 84.423,105.84 88.8,104.683 89.74,108.252 97.385,100.696 97.391,99.387 	"/>
</g>
</svg>
